<?xml version="1.0" standalone="no"?>
<!DOCTYPE svg PUBLIC "-//W3C//DTD SVG 20010904//EN"
 "http://www.w3.org/TR/2001/REC-SVG-20010904/DTD/svg10.dtd">
<svg version="1.0" xmlns="http://www.w3.org/2000/svg"
 width="460.000000pt" height="460.000000pt" viewBox="0 0 460.000000 460.000000"
 preserveAspectRatio="xMidYMid meet">
<metadata>
Created by potrace 1.11, written by Peter Selinger 2001-2013
</metadata>
<g transform="translate(0.000000,460.000000) scale(0.100000,-0.100000)"
fill="#000000" stroke="none">
<path d="M597 4033 c-4 -3 -7 -674 -7 -1490 l0 -1483 200 0 201 0 -3 88 -3 87
-112 3 -113 3 0 1309 0 1310 1315 0 1315 0 0 -85 0 -85 80 0 c44 0 80 -2 80
-4 0 -2 -36 -39 -80 -82 l-80 -77 0 -719 0 -718 85 0 85 0 2 793 c2 435 1 873
-2 972 l-5 180 -1476 3 c-811 1 -1479 -1 -1482 -5z"/>
<path d="M1545 3143 c-11 -3 -52 -20 -90 -37 -59 -28 -77 -42 -108 -87 -47
-68 -57 -104 -57 -201 l0 -78 -65 0 -66 0 3 -97 3 -98 63 -3 62 -3 0 -354 0
-355 145 0 145 0 0 355 0 355 104 0 c85 0 105 3 110 16 3 9 6 54 6 100 l0 84
-110 0 -110 0 0 46 c0 84 37 124 115 123 28 0 61 -6 75 -14 14 -8 28 -14 32
-15 3 0 29 45 56 100 l51 101 -52 24 c-29 13 -72 29 -97 34 -45 11 -178 13
-215 4z"/>
<path d="M2422 2774 c-66 -18 -118 -50 -171 -105 l-40 -42 -3 74 -3 74 -147 3
-148 3 0 -476 0 -475 150 0 150 0 0 253 c0 282 7 330 59 383 81 82 238 66 281
-28 18 -39 20 -67 20 -325 l0 -283 151 0 150 0 -3 353 c-3 339 -4 354 -26 408
-61 152 -242 231 -420 183z"/>
<path d="M3378 1483 l-3 -248 -247 4 -248 4 0 -99 0 -99 247 0 248 0 3 -252 2
-253 85 0 85 0 2 253 3 252 253 0 252 0 0 87 0 88 -252 2 -253 3 -3 253 -2
252 -85 0 -85 0 -2 -247z"/>
<path d="M1096 1157 c-48 -45 -86 -86 -86 -90 0 -4 349 -7 775 -7 l776 0 -3
88 -3 87 -687 3 -687 2 -85 -83z"/>
<path d="M805 978 c-32 -18 -44 -40 -45 -80 0 -30 -4 -37 -22 -40 -31 -4 -36
-36 -6 -40 22 -3 23 -6 26 -131 l3 -128 27 3 27 3 5 125 5 125 38 3 c30 3 37
7 35 20 -2 12 -14 17 -38 17 -31 1 -35 4 -38 29 -5 39 15 59 54 53 27 -5 33
-2 38 16 3 12 0 25 -7 29 -18 11 -79 9 -102 -4z"/>
<path d="M2170 775 l0 -215 35 0 35 0 0 215 0 215 -35 0 -35 0 0 -215z"/>
<path d="M1090 715 l0 -155 30 0 30 0 0 83 c0 128 43 187 117 161 41 -14 53
-48 53 -151 l0 -93 30 0 30 0 0 104 c0 57 -3 118 -6 136 -8 38 -53 70 -100 70
-38 0 -104 -26 -104 -41 0 -5 -4 -7 -10 -4 -5 3 -10 15 -10 26 0 14 -7 19 -30
19 l-30 0 0 -155z"/>
<path d="M1630 660 l0 -210 30 0 30 0 0 75 c0 41 3 75 6 75 3 0 12 -7 20 -15
20 -19 76 -29 121 -20 102 19 147 175 74 258 -40 47 -126 59 -179 27 -40 -25
-42 -25 -42 0 0 16 -7 20 -30 20 l-30 0 0 -210z m222 128 c27 -29 30 -37 25
-82 -7 -74 -53 -101 -135 -80 -43 12 -66 89 -41 137 33 64 103 76 151 25z"/>
<path d="M2480 760 c0 -128 14 -174 57 -191 40 -15 110 -5 137 20 29 27 36 27
36 -4 0 -20 5 -25 25 -25 l25 0 0 145 c0 80 1 148 3 153 1 4 -10 8 -24 10
l-26 3 -5 -102 c-5 -91 -8 -105 -28 -121 -33 -27 -70 -33 -99 -17 -25 14 -26
18 -29 127 l-3 112 -34 0 -35 0 0 -110z"/>
<path d="M3060 863 c-34 -13 -60 -47 -60 -78 0 -40 35 -75 97 -96 55 -18 73
-40 54 -63 -17 -20 -61 -20 -107 -1 -41 17 -54 13 -54 -16 0 -39 107 -63 177
-39 36 13 67 62 59 94 -7 28 -62 72 -102 82 -16 3 -39 13 -52 21 -19 11 -21
17 -11 34 9 17 18 20 52 16 23 -2 51 -8 62 -11 14 -5 24 -1 33 14 11 18 10 22
-15 31 -34 14 -112 21 -133 12z"/>
</g>
</svg>
